<svg id="svg" version="1.1" xmlns="http://www.w3.org/2000/svg" xmlns:xlink="http://www.w3.org/1999/xlink" width="400" height="400" viewBox="0, 0, 400,400"><g id="svgg"><path id="path0" d="M80.832 88.025 C 76.900 89.105,74.119 91.446,72.404 95.117 L 71.492 97.070 71.488 197.544 C 71.484 297.942,71.485 298.019,72.287 300.162 C 73.761 304.103,78.177 307.873,82.385 308.785 C 84.833 309.315,315.985 309.130,317.962 308.597 C 322.092 307.482,325.422 304.845,327.414 301.113 L 328.320 299.414 328.422 227.778 L 328.524 156.143 327.601 154.128 C 326.264 151.206,324.501 149.407,321.557 147.957 L 318.962 146.680 207.422 146.680 L 95.882 146.680 93.274 147.964 C 90.220 149.467,87.936 151.857,86.401 155.157 C 84.842 158.510,84.659 158.035,84.827 151.062 C 85.007 143.638,85.703 141.539,88.929 138.699 C 92.899 135.205,80.331 135.547,204.733 135.547 L 314.514 135.547 314.381 128.223 C 314.211 118.863,312.933 115.978,307.731 113.200 L 306.055 112.305 241.992 112.104 C 196.732 111.962,177.582 111.777,176.747 111.473 C 172.686 109.993,172.603 109.914,162.640 97.827 C 157.622 91.739,155.448 89.720,152.456 88.365 C 150.511 87.484,83.950 87.168,80.832 88.025 M212.683 162.506 C 259.742 171.691,281.507 228.161,252.751 266.459 C 216.029 315.367,137.294 291.273,134.503 230.273 C 132.566 187.935,171.235 154.416,212.683 162.506 M175.008 184.473 C 172.979 185.527,173.046 183.982,173.147 227.791 C 173.239 267.369,173.266 268.694,173.986 269.490 C 175.079 270.697,188.422 270.761,189.898 269.566 L 190.820 268.820 190.934 256.208 C 191.009 247.901,191.192 243.423,191.470 243.087 C 191.795 242.696,193.964 242.578,200.846 242.578 C 218.455 242.578,227.204 238.345,232.611 227.205 C 241.537 208.818,234.384 191.036,215.745 185.274 L 212.305 184.211 194.141 184.090 C 179.887 183.995,175.768 184.078,175.008 184.473 M210.352 201.005 C 220.858 204.692,221.993 219.567,212.151 224.588 C 208.846 226.274,191.845 226.941,191.029 225.416 C 190.249 223.958,190.501 201.567,191.309 200.665 C 192.250 199.614,207.145 199.880,210.352 201.005 " stroke="none" fill="#fbfbfb" fill-rule="evenodd"></path><path id="path1" d="M0.000 200.000 L 0.000 400.000 200.000 400.000 L 400.000 400.000 400.000 200.000 L 400.000 0.000 200.000 0.000 L 0.000 0.000 0.000 200.000 M153.256 88.567 C 155.747 89.717,159.067 93.136,166.260 101.961 C 171.516 108.409,172.407 109.322,174.458 110.359 L 176.758 111.523 241.016 111.719 L 305.273 111.914 307.541 113.062 C 313.046 115.850,314.222 118.420,314.385 128.025 L 314.513 135.541 204.424 135.642 L 94.336 135.742 92.449 136.613 C 86.602 139.312,85.383 141.713,85.256 150.781 L 85.161 157.617 86.001 155.469 C 87.196 152.414,91.199 148.467,94.260 147.325 L 96.528 146.479 208.127 146.579 L 319.727 146.680 321.426 147.586 C 324.013 148.967,326.428 151.406,327.629 153.851 L 328.711 156.055 328.711 227.344 L 328.711 298.633 327.614 300.866 C 325.452 305.271,321.593 308.153,316.753 308.977 C 314.983 309.279,280.552 309.370,198.242 309.291 L 82.227 309.180 79.986 308.130 C 76.906 306.686,75.307 305.387,73.677 303.006 C 70.883 298.926,71.077 307.200,71.188 196.463 L 71.289 96.680 72.330 94.727 C 73.781 92.005,76.402 89.592,79.134 88.465 L 81.445 87.510 116.406 87.603 L 151.367 87.695 153.256 88.567 M189.844 162.281 C 137.735 171.597,116.510 233.295,152.166 271.807 C 177.174 298.817,220.498 299.575,246.484 273.456 C 282.728 237.027,264.724 174.651,214.618 163.054 C 208.983 161.750,195.218 161.320,189.844 162.281 M216.667 185.401 C 234.755 191.537,241.560 209.282,232.751 227.344 C 227.401 238.313,218.715 242.559,201.593 242.571 C 189.680 242.580,191.016 240.850,191.016 256.276 L 191.016 268.681 189.814 269.692 C 188.471 270.822,177.048 271.263,174.866 270.269 C 173.014 269.426,173.047 270.199,173.047 227.100 L 173.047 186.268 174.209 185.105 L 175.372 183.943 194.229 184.064 L 213.086 184.186 216.667 185.401 M191.307 200.620 C 190.655 201.273,190.969 225.680,191.634 225.935 C 193.908 226.808,209.127 225.740,211.790 224.521 C 221.339 220.150,220.844 204.999,211.033 201.332 C 209.072 200.599,191.946 199.981,191.307 200.620 " stroke="none" fill="#040404" fill-rule="evenodd"></path><path id="path2" d="M190.797 212.695 C 190.797 218.711,190.851 221.117,190.917 218.043 C 190.983 214.968,190.983 210.046,190.917 207.105 C 190.851 204.164,190.797 206.680,190.797 212.695 M179.590 270.599 C 180.503 270.681,181.997 270.681,182.910 270.599 C 183.823 270.516,183.076 270.449,181.250 270.449 C 179.424 270.449,178.677 270.516,179.590 270.599 " stroke="none" fill="#7b7c7a" fill-rule="evenodd"></path><path id="path3" d="M198.535 161.615 C 199.556 161.696,201.226 161.696,202.246 161.615 C 203.267 161.535,202.432 161.469,200.391 161.469 C 198.350 161.469,197.515 161.535,198.535 161.615 M194.645 200.290 C 196.104 200.365,198.389 200.365,199.723 200.289 C 201.057 200.213,199.863 200.151,197.070 200.152 C 194.277 200.152,193.186 200.215,194.645 200.290 " stroke="none" fill="#5a5a5a" fill-rule="evenodd"></path><path id="path4" d="M71.286 197.461 C 71.286 251.816,71.331 273.995,71.387 246.746 C 71.442 219.497,71.442 175.025,71.387 147.918 C 71.331 120.811,71.286 143.105,71.286 197.461 M210.449 112.012 C 227.476 112.068,255.337 112.068,272.363 112.012 C 289.390 111.955,275.459 111.909,241.406 111.909 C 207.354 111.909,193.423 111.955,210.449 112.012 M84.919 151.563 C 84.919 154.463,84.980 155.649,85.055 154.199 C 85.130 152.749,85.130 150.376,85.055 148.926 C 84.980 147.476,84.919 148.662,84.919 151.563 M328.707 226.953 C 328.707 264.873,328.753 280.386,328.809 261.426 C 328.865 242.466,328.865 211.440,328.809 192.480 C 328.753 173.521,328.707 189.033,328.707 226.953 M185.254 270.592 C 185.845 270.682,186.812 270.682,187.402 270.592 C 187.993 270.503,187.510 270.430,186.328 270.430 C 185.146 270.430,184.663 270.503,185.254 270.592 M88.581 309.267 C 89.283 309.354,90.338 309.353,90.925 309.263 C 91.512 309.174,90.938 309.103,89.648 309.105 C 88.359 309.108,87.879 309.181,88.581 309.267 M93.253 309.266 C 93.946 309.353,95.177 309.354,95.987 309.269 C 96.798 309.185,96.230 309.114,94.727 309.113 C 93.223 309.111,92.560 309.180,93.253 309.266 M109.690 309.276 C 112.335 309.344,116.553 309.344,119.065 309.276 C 121.577 309.208,119.414 309.153,114.258 309.153 C 109.102 309.153,107.046 309.209,109.690 309.276 M128.613 309.264 C 129.204 309.354,130.171 309.354,130.762 309.264 C 131.353 309.175,130.869 309.101,129.688 309.101 C 128.506 309.101,128.022 309.175,128.613 309.264 M135.460 309.271 C 136.378 309.353,137.785 309.352,138.585 309.268 C 139.385 309.184,138.633 309.117,136.914 309.118 C 135.195 309.120,134.541 309.188,135.460 309.271 M143.269 309.267 C 143.971 309.354,145.025 309.353,145.612 309.263 C 146.199 309.174,145.625 309.103,144.336 309.105 C 143.047 309.108,142.567 309.181,143.269 309.267 M147.941 309.266 C 148.634 309.353,149.864 309.354,150.675 309.269 C 151.485 309.185,150.918 309.114,149.414 309.113 C 147.910 309.111,147.247 309.180,147.941 309.266 M156.738 309.254 C 157.114 309.352,157.729 309.352,158.105 309.254 C 158.481 309.155,158.174 309.075,157.422 309.075 C 156.670 309.075,156.362 309.155,156.738 309.254 M160.254 309.269 C 161.060 309.353,162.378 309.353,163.184 309.269 C 163.989 309.185,163.330 309.116,161.719 309.116 C 160.107 309.116,159.448 309.185,160.254 309.269 M166.699 309.272 C 167.827 309.351,169.673 309.351,170.801 309.272 C 171.929 309.193,171.006 309.129,168.750 309.129 C 166.494 309.129,165.571 309.193,166.699 309.272 M178.032 309.261 C 178.518 309.354,179.221 309.351,179.594 309.253 C 179.968 309.155,179.570 309.079,178.711 309.083 C 177.852 309.087,177.546 309.167,178.032 309.261 M182.893 309.274 C 184.334 309.349,186.795 309.349,188.362 309.275 C 189.929 309.200,188.750 309.139,185.742 309.138 C 182.734 309.138,181.452 309.199,182.893 309.274 M198.145 309.269 C 198.950 309.353,200.269 309.353,201.074 309.269 C 201.880 309.185,201.221 309.116,199.609 309.116 C 197.998 309.116,197.339 309.185,198.145 309.269 M204.785 309.273 C 206.021 309.351,208.042 309.351,209.277 309.273 C 210.513 309.196,209.502 309.132,207.031 309.132 C 204.561 309.132,203.550 309.196,204.785 309.273 M219.831 309.267 C 220.533 309.354,221.588 309.353,222.175 309.263 C 222.762 309.174,222.187 309.103,220.898 309.105 C 219.609 309.108,219.129 309.181,219.831 309.267 M225.494 309.265 C 226.087 309.354,226.966 309.352,227.447 309.259 C 227.927 309.167,227.441 309.093,226.367 309.096 C 225.293 309.099,224.900 309.175,225.494 309.265 M231.941 309.267 C 232.643 309.354,233.697 309.353,234.284 309.263 C 234.871 309.174,234.297 309.103,233.008 309.105 C 231.719 309.108,231.238 309.181,231.941 309.267 M243.084 309.275 C 244.759 309.348,247.396 309.348,248.944 309.274 C 250.491 309.200,249.121 309.140,245.898 309.141 C 242.676 309.141,241.409 309.202,243.084 309.275 M252.441 309.254 C 252.817 309.352,253.433 309.352,253.809 309.254 C 254.185 309.155,253.877 309.075,253.125 309.075 C 252.373 309.075,252.065 309.155,252.441 309.254 M257.129 309.264 C 257.720 309.354,258.687 309.354,259.277 309.264 C 259.868 309.175,259.385 309.101,258.203 309.101 C 257.021 309.101,256.538 309.175,257.129 309.264 M262.971 309.274 C 264.412 309.349,266.873 309.349,268.440 309.275 C 270.007 309.200,268.828 309.139,265.820 309.138 C 262.813 309.138,261.530 309.199,262.971 309.274 M272.363 309.254 C 272.739 309.352,273.354 309.352,273.730 309.254 C 274.106 309.155,273.799 309.075,273.047 309.075 C 272.295 309.075,271.987 309.155,272.363 309.254 M280.190 309.273 C 281.433 309.351,283.367 309.351,284.487 309.272 C 285.607 309.193,284.590 309.130,282.227 309.130 C 279.863 309.131,278.947 309.196,280.190 309.273 M289.355 309.260 C 289.839 309.353,290.630 309.353,291.113 309.260 C 291.597 309.167,291.201 309.091,290.234 309.091 C 289.268 309.091,288.872 309.167,289.355 309.260 M293.262 309.260 C 293.745 309.353,294.536 309.353,295.020 309.260 C 295.503 309.167,295.107 309.091,294.141 309.091 C 293.174 309.091,292.778 309.167,293.262 309.260 M297.159 309.266 C 297.853 309.353,299.083 309.354,299.894 309.269 C 300.704 309.185,300.137 309.114,298.633 309.113 C 297.129 309.111,296.466 309.180,297.159 309.266 M305.975 309.275 C 307.650 309.348,310.286 309.348,311.834 309.274 C 313.382 309.200,312.012 309.140,308.789 309.141 C 305.566 309.141,304.300 309.202,305.975 309.275 " stroke="none" fill="#848484" fill-rule="evenodd"></path></g></svg>